<svg width="64" height="64" viewBox="0 0 64 64" fill="none" xmlns="http://www.w3.org/2000/svg">
<g clip-path="url(#clip0_2_3)">
<circle cx="10.3016" cy="20.3018" r="7.8282" transform="rotate(-45 10.3016 20.3018)" fill="#C0E2B6" stroke="black"/>
<path d="M10.4127 20.413L13.4013 31.5665L21.5662 23.4015L10.4127 20.413ZM20.1198 28.7059L17.4838 26.0698L16.0695 27.484L18.7056 30.1201L20.1198 28.7059Z" fill="black"/>
<circle cx="20.5063" cy="20.5063" r="20.0063" transform="matrix(-0.707107 0.707107 0.707107 0.707107 31.8255 12.8255)" fill="#24D66E" stroke="black"/>
<circle cx="31.8256" cy="11.3861" r="7.8282" fill="#C0E2B6" stroke="black"/>
<path d="M31.8255 11.5433L26.052 21.5433L37.599 21.5433L31.8255 11.5433ZM32.8255 24.2713L32.8255 20.5433L30.8255 20.5433L30.8255 24.2713L32.8255 24.2713Z" fill="black"/>
<circle cx="20.5063" cy="20.5063" r="20.0063" transform="matrix(-1 0 0 1 52.3318 21.3193)" fill="#24D66E" stroke="black"/>
<circle cx="53.3495" cy="20.3017" r="7.8282" transform="rotate(45 53.3495 20.3017)" fill="#C0E2B6" stroke="black"/>
<path d="M53.2384 20.4128L42.0848 23.4014L50.2498 31.5664L53.2384 20.4128ZM44.9455 30.1199L47.5815 27.4839L46.1673 26.0697L43.5313 28.7057L44.9455 30.1199Z" fill="black"/>
<circle cx="20.5063" cy="20.5063" r="20.0063" transform="matrix(-0.707107 -0.707107 -0.707107 0.707107 60.8258 41.8256)" fill="#24D66E" stroke="black"/>
<path d="M44.6171 41.097C44.311 47.3864 42.4457 44.1026 39.9865 43.3043C37.5273 42.5061 35.4054 44.4956 35.7115 38.2062C36.0176 31.9168 38.2018 28.6471 40.661 29.4454C43.1202 30.2437 44.9232 34.8076 44.6171 41.097Z" fill="black"/>
<path d="M19.4967 41.097C19.8029 47.3864 21.6681 44.1026 24.1273 43.3043C26.5866 42.5061 28.7085 44.4956 28.4024 38.2062C28.0963 31.9168 25.912 28.6471 23.4528 29.4454C20.9936 30.2437 19.1906 34.8076 19.4967 41.097Z" fill="black"/>
</g>
<defs>
<clipPath id="clip0_2_3">
<rect width="64" height="64" fill="white"/>
</clipPath>
</defs>
</svg>
